<svg width="136" height="39" viewBox="0 0 136 39" fill="none" xmlns="http://www.w3.org/2000/svg">
<g clip-path="url(#clip0_250_1797)">
<path d="M13.5886 24.8968C14.3443 24.5457 14.8682 23.9718 15.1602 23.1753C15.4521 22.3788 15.4252 21.5968 15.0794 20.8294L9.58296 23.3829C9.92874 24.1503 10.4938 24.6823 11.2783 24.9787C12.0627 25.2752 12.8328 25.2479 13.5886 24.8968ZM7.63853 20.9115L10.3868 19.6347C10.2139 19.251 9.9315 18.9851 9.53961 18.837C9.14773 18.6889 8.76251 18.7025 8.38396 18.8778C8.00541 19.0531 7.74365 19.3401 7.59867 19.7387C7.45369 20.1374 7.46697 20.5283 7.63853 20.9115ZM11.7609 18.9964L14.5091 17.7196C14.3362 17.3359 14.0539 17.07 13.662 16.9219C13.2701 16.7738 12.8849 16.7874 12.5063 16.9627C12.1278 17.138 11.866 17.4249 11.721 17.8236C11.5761 18.2222 11.5893 18.6132 11.7609 18.9964ZM15.1603 28.385C14.3015 28.784 13.4225 28.9921 12.5235 29.0093C11.6245 29.0265 10.7701 28.882 9.96029 28.576C9.15049 28.2699 8.411 27.812 7.74182 27.2021C7.07264 26.5923 6.54126 25.8512 6.14766 24.9789L2.68988 17.3047L15.057 11.5593L18.5148 19.2335C18.9077 20.1055 19.1127 20.9982 19.1299 21.9116C19.147 22.8249 19.0048 23.6925 18.7031 24.5143C18.4015 25.3361 17.9505 26.087 17.3501 26.767C16.7497 27.4469 16.0198 27.9863 15.1603 28.385ZM14.5316 26.9897C15.8599 26.3726 16.7788 25.3692 17.2882 23.9795C17.7975 22.5899 17.7484 21.2206 17.1406 19.8718L14.3115 13.593L4.69269 18.0616L7.52178 24.3405C8.12951 25.6893 9.11767 26.6223 10.4863 27.1395C11.8548 27.6568 13.2033 27.6068 14.5316 26.9897Z" fill="#9A58D7"/>
</g>
<path d="M116.693 32.2962C116.693 30.0867 117.672 28.3559 119.631 27.1038C121.589 25.8517 124.478 25.1766 128.298 25.0784C128.323 24.8083 128.335 24.5874 128.335 24.4155C128.359 24.2191 128.371 23.9859 128.371 23.7158C128.371 22.9302 128.226 22.3042 127.936 21.8377C127.646 21.3712 127.041 21.138 126.122 21.138C125.615 21.138 125.204 21.2117 124.889 21.359C124.575 21.5063 124.321 21.715 124.128 21.985C123.934 22.2305 123.777 22.5374 123.656 22.9057C123.535 23.2739 123.427 23.679 123.33 24.1209C123.282 24.3419 123.173 24.4892 123.004 24.5628C122.834 24.6119 122.568 24.6365 122.206 24.6365C119.74 24.6365 118.506 23.6913 118.506 21.8009C118.506 21.0398 118.676 20.3156 119.014 19.6282C119.377 18.9407 119.897 18.3515 120.574 17.8605C121.275 17.345 122.145 16.9399 123.185 16.6453C124.225 16.3507 125.433 16.2034 126.812 16.2034C129.495 16.2034 131.442 16.768 132.65 17.8974C133.859 19.0267 134.464 20.6225 134.464 22.6847C134.464 22.9548 134.428 23.4458 134.355 24.1577C134.307 24.8451 134.234 25.5817 134.137 26.3673C134.065 27.1283 133.992 27.8526 133.92 28.54C133.871 29.2274 133.847 29.7061 133.847 29.9762C133.847 30.59 133.956 31.0319 134.174 31.3019C134.391 31.5474 134.633 31.7193 134.899 31.8175C135.189 31.9157 135.443 31.9893 135.661 32.0384C135.878 32.0875 135.987 32.2103 135.987 32.4067C135.987 32.9468 135.914 33.4992 135.769 34.0638C135.624 34.6285 135.383 35.1441 135.044 35.6105C134.73 36.077 134.282 36.4575 133.702 36.7521C133.146 37.0467 132.457 37.194 131.635 37.194C130.474 37.194 129.604 36.9117 129.024 36.347C128.444 35.7824 128.057 34.9968 127.863 33.9902C127.283 34.8495 126.521 35.5983 125.578 36.2366C124.66 36.8749 123.451 37.194 121.952 37.194C121.226 37.194 120.537 37.1081 119.885 36.9363C119.256 36.7644 118.7 36.4821 118.216 36.0893C117.757 35.6965 117.382 35.1932 117.092 34.5794C116.826 33.9411 116.693 33.18 116.693 32.2962ZM127.972 28.0981C127.343 28.0981 126.727 28.1472 126.122 28.2454C125.518 28.3436 124.974 28.5032 124.49 28.7241C124.031 28.9205 123.656 29.1906 123.366 29.5343C123.076 29.878 122.931 30.2953 122.931 30.7864C122.931 31.351 123.1 31.7438 123.439 31.9648C123.801 32.1857 124.188 32.2962 124.599 32.2962C124.986 32.2962 125.373 32.2103 125.76 32.0384C126.147 31.8666 126.485 31.6088 126.775 31.2651C127.09 30.8968 127.356 30.4549 127.573 29.9394C127.791 29.4238 127.924 28.81 127.972 28.0981Z" fill="#272626"/>
<path d="M102.172 37.194C101.229 37.194 100.322 37.0222 99.452 36.6784C98.6058 36.3347 97.8563 35.7946 97.2035 35.0581C96.5749 34.3216 96.0671 33.3887 95.6803 32.2594C95.3176 31.13 95.1363 29.7675 95.1363 28.1717C95.1363 27.4597 95.1846 26.6741 95.2814 25.8149C95.3781 24.931 95.5473 24.0472 95.7891 23.1634C96.0309 22.2796 96.3694 21.4203 96.8046 20.5856C97.2398 19.7509 97.7838 19.0144 98.4366 18.3761C99.1135 17.7132 99.9114 17.1854 100.83 16.7925C101.773 16.3997 102.873 16.2033 104.13 16.2033C105.339 16.2033 106.306 16.4243 107.032 16.8662C107.781 17.2836 108.253 18.0201 108.446 19.0757C108.495 18.1183 108.543 17.2836 108.591 16.5716C108.64 15.8596 108.676 15.1968 108.7 14.583C108.748 13.9692 108.797 13.3555 108.845 12.7417C108.893 12.128 108.942 11.4283 108.99 10.6427C109.014 10.1025 109.075 9.78338 109.171 9.68518C109.22 9.63608 109.28 9.61153 109.353 9.61153C109.425 9.58698 109.558 9.57471 109.752 9.57471H111.166C111.891 9.57471 112.496 9.66063 112.979 9.83249C113.463 10.0043 113.85 10.2376 114.14 10.5322C114.43 10.8268 114.636 11.1705 114.757 11.5633C114.877 11.9316 114.938 12.3244 114.938 12.7417C114.938 12.7417 114.914 13.0486 114.865 13.6624C114.817 14.2761 114.757 15.0986 114.684 16.1297C114.611 17.1363 114.527 18.2901 114.43 19.5913C114.333 20.8925 114.237 22.2428 114.14 23.6421C114.043 25.017 113.947 26.3918 113.85 27.7666C113.753 29.1169 113.656 30.369 113.56 31.5228C113.463 32.6522 113.378 33.6342 113.306 34.4689C113.258 35.2791 113.221 35.8192 113.197 36.0892C113.149 36.3838 113.088 36.5802 113.016 36.6784C112.943 36.7766 112.738 36.8257 112.399 36.8257H111.094C110.586 36.8257 110.102 36.7889 109.643 36.7153C109.208 36.6171 108.821 36.4698 108.482 36.2734C108.168 36.0524 107.914 35.7701 107.721 35.4264C107.552 35.0581 107.467 34.5917 107.467 34.027C107.032 34.9599 106.367 35.721 105.472 36.3102C104.602 36.8994 103.502 37.194 102.172 37.194ZM105.327 21.1012C104.094 21.1012 103.175 21.6535 102.571 22.7583C101.991 23.8385 101.701 25.2993 101.701 27.1406C101.701 27.7789 101.737 28.4049 101.809 29.0187C101.906 29.6325 102.063 30.1848 102.281 30.6758C102.498 31.1669 102.789 31.5597 103.151 31.8543C103.538 32.1489 104.022 32.2962 104.602 32.2962C105.642 32.2962 106.512 31.7806 107.213 30.7495C107.914 29.7184 108.265 28.098 108.265 25.8885C108.265 25.2747 108.229 24.6855 108.156 24.1209C108.083 23.5317 107.938 23.0161 107.721 22.5742C107.503 22.1323 107.201 21.7763 106.814 21.5062C106.427 21.2362 105.932 21.1012 105.327 21.1012Z" fill="#272626"/>
<path d="M79.9261 37.194C78.9831 37.194 78.0765 37.0222 77.2061 36.6784C76.3598 36.3347 75.6103 35.7946 74.9575 35.0581C74.3289 34.3216 73.8212 33.3887 73.4343 32.2594C73.0717 31.13 72.8903 29.7675 72.8903 28.1717C72.8903 27.4597 72.9387 26.6741 73.0354 25.8149C73.1321 24.931 73.3013 24.0472 73.5431 23.1634C73.7849 22.2796 74.1234 21.4203 74.5586 20.5856C74.9938 19.7509 75.5378 19.0144 76.1906 18.3761C76.8676 17.7132 77.6654 17.1854 78.5842 16.7925C79.5271 16.3997 80.6272 16.2033 81.8845 16.2033C83.0933 16.2033 84.0605 16.4243 84.7858 16.8662C85.5353 17.2836 86.0068 18.0201 86.2002 19.0757C86.2485 18.1183 86.2969 17.2836 86.3453 16.5716C86.3936 15.8596 86.4299 15.1968 86.4541 14.583C86.5024 13.9692 86.5508 13.3555 86.5991 12.7417C86.6475 12.128 86.6958 11.4283 86.7442 10.6427C86.7684 10.1025 86.8288 9.78338 86.9255 9.68518C86.9739 9.63608 87.0343 9.61153 87.1069 9.61153C87.1794 9.58698 87.3124 9.57471 87.5058 9.57471H88.9202C89.6455 9.57471 90.25 9.66063 90.7335 9.83249C91.2171 10.0043 91.6039 10.2376 91.8941 10.5322C92.1842 10.8268 92.3897 11.1705 92.5106 11.5633C92.6315 11.9316 92.6919 12.3244 92.6919 12.7417C92.6919 12.7417 92.6677 13.0486 92.6194 13.6624C92.571 14.2761 92.5106 15.0986 92.4381 16.1297C92.3655 17.1363 92.2809 18.2901 92.1842 19.5913C92.0875 20.8925 91.9908 22.2428 91.8941 23.6421C91.7973 25.017 91.7006 26.3918 91.6039 27.7666C91.5072 29.1169 91.4105 30.369 91.3138 31.5228C91.2171 32.6522 91.1325 33.6342 91.0599 34.4689C91.0116 35.2791 90.9753 35.8192 90.9511 36.0892C90.9028 36.3838 90.8423 36.5802 90.7698 36.6784C90.6973 36.7766 90.4917 36.8257 90.1533 36.8257H88.8477C88.3399 36.8257 87.8564 36.7889 87.397 36.7153C86.9618 36.6171 86.5749 36.4698 86.2365 36.2734C85.9221 36.0524 85.6683 35.7701 85.4749 35.4264C85.3056 35.0581 85.221 34.5917 85.221 34.027C84.7858 34.9599 84.1209 35.721 83.2263 36.3102C82.3559 36.8994 81.2558 37.194 79.9261 37.194ZM83.0813 21.1012C81.8482 21.1012 80.9294 21.6535 80.325 22.7583C79.7447 23.8385 79.4546 25.2993 79.4546 27.1406C79.4546 27.7789 79.4909 28.4049 79.5634 29.0187C79.6601 29.6325 79.8173 30.1848 80.0349 30.6758C80.2525 31.1669 80.5426 31.5597 80.9053 31.8543C81.2921 32.1489 81.7757 32.2962 82.3559 32.2962C83.3956 32.2962 84.266 31.7806 84.9671 30.7495C85.6683 29.7184 86.0189 28.098 86.0189 25.8885C86.0189 25.2747 85.9826 24.6855 85.9101 24.1209C85.8375 23.5317 85.6925 23.0161 85.4749 22.5742C85.2573 22.1323 84.955 21.7763 84.5682 21.5062C84.1813 21.2362 83.6857 21.1012 83.0813 21.1012Z" fill="#272626"/>
<path d="M58.2891 19.7017C58.2891 20.2173 58.2407 20.9415 58.144 21.8744C58.0715 22.8074 57.9869 23.7771 57.8901 24.7837C57.8176 25.7902 57.733 26.7354 57.6363 27.6193C57.5637 28.5031 57.5275 29.1414 57.5275 29.5342C57.5275 30.3935 57.733 31.0686 58.144 31.5596C58.5792 32.0261 59.1716 32.2593 59.9211 32.2593C60.5739 32.2593 61.1179 32.0015 61.5531 31.486C62.0125 30.9458 62.3751 30.2584 62.6411 29.4237C62.9312 28.5644 63.1609 27.5947 63.3301 26.5145C63.4994 25.4343 63.6203 24.3418 63.6928 23.237C63.7895 22.1322 63.8621 21.0643 63.9104 20.0332C63.983 18.9775 64.0555 18.0691 64.128 17.308C64.1522 17.1116 64.2247 16.9398 64.3456 16.7925C64.4665 16.6452 64.6599 16.5715 64.9259 16.5715H66.2315C66.981 16.5715 67.5854 16.6575 68.0448 16.8293C68.5284 16.9766 68.9031 17.1976 69.1691 17.4922C69.4592 17.7868 69.6526 18.155 69.7494 18.5969C69.8702 19.0143 69.9307 19.5053 69.9307 20.07C69.9307 20.4382 69.9065 20.9661 69.8581 21.6535C69.834 22.3163 69.7735 23.2493 69.6768 24.4522C69.5801 25.6307 69.4592 27.1405 69.3141 28.9818C69.1933 30.7985 69.0361 33.0572 68.8427 35.7577C68.7943 36.2733 68.7339 36.5802 68.6613 36.6784C68.613 36.7766 68.4196 36.8257 68.0811 36.8257H66.6667C65.9413 36.8257 65.3369 36.7398 64.8533 36.5679C64.394 36.396 64.0192 36.1751 63.7291 35.905C63.4389 35.635 63.2334 35.3158 63.1125 34.9476C62.9917 34.5793 62.9191 34.1988 62.8949 33.806C62.5323 34.4443 62.1213 34.9844 61.6619 35.4263C61.2267 35.8682 60.7673 36.2242 60.2837 36.4943C59.8002 36.7398 59.3045 36.9116 58.7968 37.0098C58.2891 37.1326 57.7934 37.1939 57.3099 37.1939C56.3911 37.1939 55.5691 37.0466 54.8437 36.752C54.1184 36.4329 53.5019 36.0155 52.9941 35.5C52.5106 34.9844 52.1358 34.3706 51.8699 33.6587C51.6039 32.9467 51.4709 32.1856 51.4709 31.3755C51.4709 31.0563 51.483 30.5408 51.5072 29.8288C51.5556 29.0923 51.6039 28.2698 51.6523 27.3615C51.7248 26.4531 51.7973 25.4956 51.8699 24.4891C51.9424 23.4579 52.0029 22.4882 52.0512 21.5798C52.1237 20.6715 52.1842 19.8736 52.2325 19.1862C52.3051 18.4987 52.3534 18.0077 52.3776 17.7131C52.426 17.2712 52.5227 16.9766 52.6677 16.8293C52.8128 16.6575 53.0546 16.5715 53.3931 16.5715H54.5536C55.3031 16.5715 55.9197 16.6452 56.4032 16.7925C56.8868 16.9398 57.2615 17.1485 57.5275 17.4185C57.8176 17.6886 58.011 18.02 58.1077 18.4128C58.2286 18.7811 58.2891 19.2107 58.2891 19.7017Z" fill="#272626"/>
<path d="M45.5408 25.373C45.3957 25.373 45.2265 25.373 45.0331 25.373C44.8638 25.3484 44.6946 25.3239 44.5253 25.2993C44.3561 25.2502 44.211 25.2011 44.0901 25.152C43.9692 25.0784 43.9088 24.9924 43.9088 24.8942C43.9088 24.5751 43.9209 24.2805 43.9451 24.0104C43.9692 23.7404 43.9813 23.458 43.9813 23.1634C43.9813 22.6233 43.9088 22.1814 43.7637 21.8377C43.6187 21.494 43.3285 21.3221 42.8933 21.3221C42.2163 21.3221 41.6482 21.7763 41.1888 22.6847C40.7536 23.5685 40.4755 24.9065 40.3546 26.6987C40.3063 27.4843 40.2338 28.3804 40.1371 29.387C40.0645 30.369 39.992 31.3265 39.9194 32.2594C39.8469 33.1678 39.7865 33.9779 39.7381 34.6899C39.6898 35.4018 39.6656 35.8683 39.6656 36.0893C39.6656 36.3348 39.581 36.5189 39.4117 36.6416C39.2425 36.7644 39.0611 36.8258 38.8677 36.8258H37.5621C36.8126 36.8258 36.1961 36.7521 35.7125 36.6048C35.2531 36.433 34.8784 36.1997 34.5882 35.9051C34.3223 35.6105 34.1289 35.2545 34.008 34.8372C33.9113 34.3953 33.8629 33.892 33.8629 33.3273C33.8629 32.9591 33.875 32.4435 33.8992 31.7807C33.9475 31.0932 34.0201 30.1603 34.1168 28.9819C34.2135 27.7789 34.3223 26.2691 34.4432 24.4523C34.5882 22.611 34.7575 20.3401 34.9509 17.6396C34.9993 16.9276 35.2531 16.5716 35.7125 16.5716H37.1269C37.8039 16.5716 38.3721 16.6453 38.8314 16.7926C39.2908 16.9399 39.6656 17.1486 39.9557 17.4186C40.2459 17.6641 40.4514 17.9587 40.5722 18.3024C40.7173 18.6461 40.814 19.0021 40.8624 19.3704C41.1525 18.8057 41.491 18.327 41.8778 17.9342C42.2889 17.5168 42.712 17.1854 43.1472 16.9399C43.5824 16.6698 44.0297 16.4857 44.4891 16.3875C44.9484 16.2647 45.3715 16.2034 45.7584 16.2034C46.2178 16.2034 46.6771 16.2893 47.1365 16.4611C47.6201 16.633 48.0553 16.8908 48.4421 17.2345C48.829 17.5782 49.1312 18.0201 49.3488 18.5602C49.5906 19.1003 49.7114 19.7386 49.7114 20.4752C49.7114 21.138 49.6147 21.7641 49.4213 22.3533C49.2279 22.9425 48.9499 23.4703 48.5872 23.9368C48.2245 24.3787 47.7772 24.7347 47.2453 25.0047C46.7376 25.2502 46.1694 25.373 45.5408 25.373Z" fill="#272626"/>
<path d="M19.1942 37.194C17.7677 37.194 16.595 37.0958 15.6763 36.8994C14.7575 36.7276 14.0201 36.4698 13.464 36.1261C12.9321 35.7578 12.5574 35.3036 12.3398 34.7635C12.1463 34.2234 12.0496 33.5851 12.0496 32.8486C12.0496 32.6276 12.0617 32.3207 12.0859 31.9279C12.1101 31.5106 12.1463 30.9336 12.1947 30.1971C12.243 29.4606 12.3035 28.5154 12.376 27.3616C12.4727 26.1831 12.5936 24.7101 12.7387 22.9425C12.9079 20.7575 13.0409 19.0267 13.1376 17.75C13.2343 16.4734 13.3069 15.4914 13.3552 14.804C13.4036 14.092 13.4278 13.601 13.4278 13.3309C13.4519 13.0363 13.464 12.7908 13.464 12.5944C13.464 12.2016 13.464 11.8825 13.464 11.637C13.4882 11.3915 13.5124 11.2073 13.5366 11.0846C13.5849 10.9373 13.6454 10.8391 13.7179 10.79C13.8146 10.7163 13.9476 10.6795 14.1168 10.6795C15.5433 10.5813 16.7522 10.5076 17.7435 10.4585C18.759 10.4094 19.6414 10.3849 20.391 10.3849C22.2285 10.3849 23.8 10.5445 25.1056 10.8636C26.4354 11.1582 27.5113 11.5879 28.3334 12.1525C29.1554 12.7172 29.7598 13.4169 30.1467 14.2516C30.5335 15.0863 30.727 16.0315 30.727 17.0872C30.727 17.6764 30.6665 18.2901 30.5456 18.9285C30.4247 19.5422 30.2192 20.1314 29.9291 20.6961C29.639 21.2608 29.24 21.764 28.7323 22.2059C28.2487 22.6233 27.6322 22.9302 26.8827 23.1266C28.285 23.5685 29.2763 24.305 29.8566 25.3361C30.4368 26.3427 30.727 27.5457 30.727 28.9451C30.727 30.0744 30.5456 31.1423 30.183 32.1489C29.8203 33.1309 29.1917 34.0025 28.2971 34.7635C27.4025 35.5 26.2178 36.0892 24.743 36.5312C23.2681 36.9731 21.4185 37.194 19.1942 37.194ZM21.2614 25.778C20.9954 25.778 20.669 25.8026 20.2822 25.8517C19.8953 25.8762 19.4964 25.9253 19.0854 25.999L18.6864 32.0016C19.5568 32.2716 20.3426 32.4067 21.0438 32.4067C21.7933 32.4067 22.3977 32.2962 22.8571 32.0752C23.3165 31.8543 23.667 31.5842 23.9088 31.2651C24.1748 30.9214 24.344 30.5531 24.4166 30.1603C24.5133 29.7429 24.5616 29.3624 24.5616 29.0187C24.5616 28.1103 24.3078 27.3493 23.8 26.7355C23.3165 26.0972 22.4702 25.778 21.2614 25.778ZM19.7382 15.651C19.6898 16.2893 19.6414 17.0381 19.5931 17.8973C19.5689 18.7566 19.5206 19.6895 19.448 20.6961C20.2217 20.8925 20.9108 20.9907 21.5152 20.9907C22.2406 20.9907 22.8208 20.9048 23.256 20.7329C23.6912 20.5611 24.0297 20.3401 24.2715 20.0701C24.5374 19.8 24.7067 19.5054 24.7792 19.1862C24.8759 18.8671 24.9243 18.5602 24.9243 18.2656C24.9243 17.5045 24.6704 16.8539 24.1627 16.3138C23.6791 15.7492 22.8329 15.4668 21.624 15.4668C21.3581 15.4668 21.0558 15.4914 20.7174 15.5405C20.403 15.565 20.0766 15.6019 19.7382 15.651Z" fill="#272626"/>
<g clip-path="url(#clip1_250_1797)">
<path d="M44.4307 26.0183C43.9458 26.7587 43.77 27.6642 43.9419 28.5361C44.1139 29.4079 44.6194 30.1749 45.3476 30.6687C45.4681 30.7499 45.5935 30.823 45.7232 30.8876L47.5738 36.0305C47.6334 36.1982 47.7505 36.3384 47.9035 36.4257C48.0566 36.5129 48.2355 36.5413 48.4075 36.5056L49.3165 36.3208C49.4887 36.2865 49.6431 36.1904 49.7513 36.05C49.8595 35.9097 49.9143 35.7345 49.9058 35.5564L49.6633 30.0856C49.7587 29.9755 49.8469 29.8593 49.9275 29.7377C50.4132 28.9975 50.5895 28.0917 50.4176 27.2196C50.2456 26.3475 49.7395 25.5804 49.0106 25.0872C48.2817 24.594 47.3896 24.415 46.5307 24.5896C45.6718 24.7642 44.9164 25.2781 44.4307 26.0183ZM48.6036 25.7074C49.0654 26.019 49.4148 26.4747 49.5992 27.0057L44.6151 28.0187C44.5895 27.5355 44.6968 27.0546 44.9249 26.6299C45.1531 26.2051 45.4931 25.8531 45.9069 25.6132C46.3208 25.3734 46.7922 25.2552 47.2684 25.2718C47.7446 25.2885 48.2069 25.4393 48.6036 25.7074ZM49.1735 35.5904L48.2626 35.7756L46.6108 31.1798C47.4235 31.3222 48.2594 31.1522 48.9555 30.7031L49.1735 35.5904ZM45.7546 30.0486C45.2929 29.737 44.9436 29.2814 44.7594 28.7505L49.7425 27.7374C49.768 28.2205 49.6606 28.7012 49.4325 29.1258C49.2044 29.5505 48.8645 29.9024 48.4507 30.1422C48.037 30.382 47.5657 30.5002 47.0896 30.4837C46.6135 30.4671 46.1513 30.3165 45.7546 30.0486ZM47.9218 31.6465C48.0172 31.6272 48.1163 31.6471 48.1972 31.7019C48.2782 31.7566 48.3344 31.8418 48.3535 31.9387L48.4554 32.4554C48.4663 32.5039 48.4674 32.5541 48.4589 32.6031C48.4503 32.652 48.4322 32.6988 48.4055 32.7405C48.3789 32.7823 48.3443 32.8182 48.3038 32.8461C48.2633 32.874 48.2176 32.8935 48.1696 32.9032C48.1216 32.913 48.0721 32.9129 48.0241 32.903C47.9761 32.893 47.9306 32.8734 47.8902 32.8453C47.8498 32.8172 47.8153 32.7811 47.7888 32.7393C47.7624 32.6974 47.7444 32.6506 47.736 32.6016L47.6341 32.0849C47.6245 32.0369 47.6244 31.9874 47.6337 31.9393C47.6429 31.8912 47.6615 31.8454 47.6882 31.8046C47.715 31.7637 47.7494 31.7287 47.7895 31.7014C47.8296 31.6741 47.8746 31.6551 47.9219 31.6455L47.9218 31.6465Z" fill="#9A58D7"/>
</g>
<path d="M123.801 0.641783C123.675 0.640848 123.544 0.667137 123.416 0.718528C123.244 0.788295 123.084 0.899995 122.968 1.06132C123.216 1.14677 123.438 1.31116 123.622 1.51381C123.921 1.84243 124.157 2.27902 124.366 2.76387C124.783 3.73353 125.081 4.90612 125.318 5.74355L124.705 6.13842C124.464 5.28625 124.167 3.91949 123.781 3.0229C123.589 2.57459 123.372 2.19242 123.154 1.95294C123.02 1.806 122.9 1.71617 122.779 1.67366C122.777 1.77633 122.785 1.88749 122.806 2.008L124.026 6.79053L124.419 6.51905C123.87 7.26901 123.613 8.25942 123.814 9.26407C123.983 9.32809 124.258 9.398 124.595 9.45302C124.572 9.3729 124.561 9.28987 124.56 9.20643C124.56 8.71374 124.961 8.30743 125.446 8.30743C125.931 8.30743 126.331 8.71374 126.331 9.20643C126.331 9.34391 126.3 9.4746 126.245 9.59169C126.456 9.59831 126.671 9.60209 126.887 9.60209C127.133 9.60209 127.379 9.59741 127.621 9.58878C127.565 9.46939 127.535 9.33875 127.535 9.20643C127.535 8.71374 127.936 8.30743 128.421 8.30743C128.906 8.30743 129.306 8.71374 129.306 9.20643C129.306 9.28828 129.295 9.36765 129.274 9.44328C129.601 9.38958 129.872 9.32341 130.053 9.25811C130.254 8.24105 129.974 7.23726 129.397 6.48416L129.841 6.79057L131.061 2.008C131.082 1.88753 131.09 1.77633 131.088 1.67366C130.967 1.71617 130.847 1.806 130.713 1.95294C130.495 2.19246 130.278 2.57459 130.085 3.0229C129.7 3.91949 129.403 5.28625 129.161 6.13842L128.549 5.74355C128.786 4.90612 129.084 3.73353 129.501 2.76387C129.71 2.27902 129.946 1.84243 130.245 1.51381C130.429 1.31116 130.651 1.14677 130.899 1.06132C130.782 0.899995 130.623 0.788331 130.45 0.718528C130.043 0.553999 129.599 0.646638 129.392 1.06603L129.382 1.08696L129.369 1.10613C129.136 1.44591 128.893 2.16674 128.677 2.97069C128.46 3.77467 128.255 4.6682 128.016 5.42154L127.713 5.32246L127.717 5.32541C127.454 5.25172 127.183 5.21441 126.911 5.2145C126.69 5.2145 126.475 5.23932 126.268 5.28535L125.851 5.42158C125.612 4.66819 125.407 3.77467 125.19 2.97072C124.973 2.16678 124.731 1.44591 124.498 1.10613L124.485 1.08696L124.475 1.06603C124.333 0.777686 124.078 0.643833 123.801 0.641783ZM123.394 6.89252C122.5 7.01925 121.694 7.19083 121.015 7.39776C120.267 7.62555 119.671 7.89721 119.286 8.1748C118.9 8.45243 118.752 8.70698 118.752 8.91873C118.752 9.13047 118.9 9.38505 119.286 9.66265C119.671 9.94024 120.267 10.2119 121.015 10.4397C122.51 10.8952 124.612 11.1844 126.933 11.1844C129.255 11.1844 131.357 10.8952 132.852 10.4397C133.6 10.2119 134.196 9.94024 134.581 9.66265C134.966 9.38502 135.115 9.13047 135.115 8.91873C135.115 8.70698 134.966 8.4524 134.581 8.1748C134.196 7.89721 133.6 7.62555 132.852 7.39776C132.173 7.19083 131.366 7.01925 130.473 6.89252L130.441 7.01727C130.507 7.17526 130.564 7.33732 130.61 7.50248C132.053 7.78964 132.898 8.22957 132.901 8.69565C132.898 9.27943 131.58 9.81114 129.509 10.0631C129.34 10.0918 129.162 10.1169 128.971 10.1393C128.343 10.2131 127.613 10.2493 126.887 10.2493C126.16 10.2493 125.438 10.2131 124.824 10.1392C124.586 10.1103 124.366 10.0785 124.166 10.039C122.2 9.77733 120.968 9.2599 120.966 8.69565C120.967 8.22983 121.808 7.78989 123.249 7.50227C123.296 7.33126 123.353 7.16348 123.421 6.99998L123.394 6.89252ZM122.56 11.468L122.483 12.562C125.322 13.2514 128.255 13.3767 131.383 12.5622L131.306 11.4681C130.019 11.7001 128.527 11.8317 126.933 11.8317C125.339 11.8317 123.848 11.7001 122.56 11.4681L122.56 11.468ZM122.438 13.2158L122.156 17.2182C122.189 17.2452 122.269 17.2922 122.385 17.3372C122.625 17.4299 123.008 17.5192 123.474 17.5892C124.405 17.7292 125.67 17.8016 126.933 17.8016C128.197 17.8016 129.462 17.7293 130.393 17.5892C130.858 17.5192 131.242 17.4299 131.482 17.3372C131.598 17.2922 131.677 17.2452 131.711 17.2182L131.429 13.2174C128.272 14.0187 125.291 13.8949 122.438 13.2158Z" fill="#9A58D7"/>
<defs>
<clipPath id="clip0_250_1797">
<rect width="18.182" height="18.3648" fill="white" transform="matrix(0.90691 -0.421325 0.4108 0.911726 0 16.8669)"/>
</clipPath>
<clipPath id="clip1_250_1797">
<rect width="11.8687" height="11.799" fill="white" transform="matrix(0.548662 -0.836044 0.828215 0.56041 39.5465 32.1168)"/>
</clipPath>
</defs>
</svg>
